<svg id="Layer_1" data-name="Layer 1" xmlns="http://www.w3.org/2000/svg" viewBox="0 0 992.88 891.88"><defs><style>.cls-1{fill:#FF0000;}</style></defs><title>Logo vecto</title><path class="cls-1" d="M912,164.28c-99.79-98.93-255.19-94.18-351.3,8.86l-48.59,52.1a21.13,21.13,0,0,1-31.35,0l-49.93-53.53c-49.12-52.65-113.85-79-178.59-79q-9.12,0-18.23.7c-19.55,1.49-28.72,24.91-15.35,39.25L353.46,277.22a19.77,19.77,0,0,1-1,27.86L324,331.67a19.78,19.78,0,0,1-27.86-1l-167-179.11a23.33,23.33,0,0,0-32-2.08,259.48,259.48,0,0,0-23.43,22.2q-1.77,1.9-3.51,3.84a23.32,23.32,0,0,0,.4,31.44L244.67,393.7a19.79,19.79,0,0,1-1,27.87l-28.51,26.58a19.78,19.78,0,0,1-27.87-1l-141.78-152c-13-14-36.35-7.22-40,11.54-17.07,86.76,5.65,180.94,68.18,248L317.44,816a258.57,258.57,0,0,0,23.72,22.44,23.09,23.09,0,0,1,2.1,2L463.19,969c19.46,20.86,51.29,20.86,70.75,0L752.31,734.85a53.46,53.46,0,0,0,4.81-6,25.76,25.76,0,0,1,2.35-3L919.21,554.63c49.1-52.66,73.67-122.06,73.67-191.47C992.88,290.45,965.91,217.73,912,164.28ZM813,244c-13.42,8.42-27.26-8.48-58.25-8.79-31.9-.33-56.36,17.17-61.53,20.87-34,24.3-32.05,54.36-55,58.25-16.93,2.87-37.71-10.22-44-26.38-12.4-32.08,30.5-81.34,73.62-103.29,56.7-28.87,136.87-22.3,153.85,12.08C829.55,212.45,825.16,236.3,813,244Z" transform="translate(0 -92.73)"/></svg>